<svg
  t="1739014668019"
  class="icon"
  viewBox="0 0 1024 1024"
  version="1.1"
  xmlns="http://www.w3.org/2000/svg"
  p-id="32216"
  width="20"
  height="20"
><path d="M336.923054 914.255527l205.66101-139.615804L144.103514 233.763045 336.923054 914.255527zM701.673385 914.255527 701.673385 690.76136 108.956016 109.72503 701.673385 914.255527zM725.233987 650.706085l204.377784-138.704039L237.927389 172.906002 725.233987 650.706085zM79.974961 75.207889c8.31334-6.728238 18.632359-10.193153 29.008684-10.193153 6.936993 0 13.903661 1.552356 20.367887 4.712325l820.655755 402.272923c14.435781 7.064906 23.957645 21.061688 25.073048 36.84721 1.157359 15.725146-6.253424 30.91408-19.505239 39.889499L747.140926 690.243567c0 0.176009 0.12996 0.363274 0.12996 0.539282l0 223.49212c0 19.404955-12.717649 36.559661-31.53625 42.534745-4.617158 1.476631-9.341762 2.174526-14.038738 2.174526-14.355963 0-28.239158-6.67298-36.948517-18.525935l-95.399767-129.521912L362.939591 951.042361c-7.703449 5.230118-16.811898 7.942903-25.941835 7.942903-5.226025 0-10.451026-0.87902-15.491833-2.686179-13.909801-4.892427-24.469298-16.121166-28.42233-30.067806L65.03776 121.649618C60.209802 104.654548 66.097906 86.439698 79.974961 75.207889" fill="#ffffff" p-id="32217"></path></svg>
